<svg width="140" height="43" viewBox="0 0 140 43" fill="none" xmlns="http://www.w3.org/2000/svg">
<path fill-rule="evenodd" clip-rule="evenodd" d="M110.34 16.7421C110.34 15.3517 112.17 15.2313 112.17 16.7421V24.0279C112.17 27.7815 110.897 30.0726 106.788 30.0726C103.179 30.0726 100.75 28.2696 101.343 24.0279C101.727 21.268 101.291 17.5641 98.5664 13.9421L99.7332 13.4315C102.236 16.3953 103.536 21.0834 103.172 24.0279C102.836 26.7572 103.655 28.4414 106.631 28.4414C109.756 28.4414 110.332 26.8841 110.332 24.0279L110.34 16.7421Z" fill="#EF4123"/>
<path fill-rule="evenodd" clip-rule="evenodd" d="M79.7318 3.53188C69.2358 4.93349 60.9332 12.2016 60.7127 23.3037C60.2444 46.7859 98.0959 44.8754 96.3997 23.0934C92.629 21.1331 84.9944 23.6553 79.5612 26.0443C78.2255 26.6303 77.8393 22.7611 79.3504 22.2939C83.8147 20.9099 94.9609 20.6884 98.1796 21.7721C98.2752 21.8047 98.3542 21.8734 98.3996 21.9634C98.4451 22.0535 98.4533 22.1577 98.4226 22.2537C97.4924 36.8542 86.9964 42.8315 77.2857 42.1139C77.2217 42.1314 77.1548 42.1352 77.0893 42.1251L76.7514 42.0705C66.7349 41.0751 59.5556 33.16 59.752 23.2764C59.9837 11.5353 67.2708 4.10666 78.7936 2.19128C78.5007 0.332103 81.5584 -1.47088 83.4607 1.85091C86.3064 2.10626 89.0762 2.90648 91.6184 4.2078C95.4808 6.22111 98.8604 9.38396 100.792 13.409C101.102 14.0608 98.7155 15.1301 98.2166 14.6805C96.8777 13.584 95.7206 13.2195 93.6831 13.0381C89.3058 12.6464 81.4184 14.231 79.4647 18.0296C83.525 8.90392 107.593 14.1909 91.2305 5.07638C89.1094 3.89473 86.5457 3.42592 84.0448 3.17546C84.0947 3.32156 84.1446 3.46927 84.1913 3.62661C80.448 -1.83212 78.372 2.46422 81.4554 4.23349C80.8422 4.10834 80.2578 3.87042 79.7318 3.53188ZM86.7437 4.3812C86.3204 4.45023 86.0855 5.16148 86.2191 5.97065C86.3526 6.77983 86.8081 7.38511 87.2265 7.30965C87.6449 7.23419 87.8847 6.52776 87.7511 5.72019C87.6176 4.91262 87.1734 4.31216 86.7437 4.3812Z" fill="#1E212E"/>
<path fill-rule="evenodd" clip-rule="evenodd" d="M10.3466 25.1289L12.1764 25.5913C11.7955 27.0898 11.1084 28.2292 10.1149 29.0094C9.12137 29.7897 7.90739 30.1809 6.47294 30.1831C4.99129 30.1831 3.78429 29.8807 2.85195 29.2759C1.8936 28.6405 1.15292 27.7279 0.72924 26.6606C0.239664 25.4934 -0.00831341 24.2395 0.000212619 22.9743C0.000212619 21.5422 0.274335 20.2926 0.822581 19.2254C1.33594 18.1962 2.1524 17.348 3.16255 16.7947C4.18612 16.2375 5.33593 15.9517 6.50191 15.9647C7.88272 15.9647 9.04144 16.3157 9.97807 17.0179C10.9147 17.72 11.5697 18.7047 11.9431 19.972L10.1535 20.3894C9.83162 19.3908 9.36974 18.6603 8.76302 18.206C8.1563 17.7516 7.39187 17.5204 6.46973 17.5204C5.414 17.5204 4.52726 17.7725 3.81755 18.2782C3.11191 18.78 2.58755 19.4957 2.32248 20.3188C2.03396 21.169 1.88718 22.0607 1.88796 22.9583C1.86661 24.0015 2.0396 25.0397 2.39812 26.02C2.68977 26.8337 3.25058 27.5239 3.98814 27.9771C4.69191 28.4027 5.50031 28.625 6.32328 28.6193C7.26418 28.6463 8.18319 28.3333 8.91108 27.7379C9.61758 27.1486 10.0955 26.2785 10.3466 25.1177V25.1289ZM13.8759 23.2585C13.8759 20.9765 14.4912 19.1901 15.7218 17.8993C16.9524 16.6085 18.5397 15.9663 20.4838 15.9727C21.6942 15.9559 22.8859 16.2708 23.9294 16.883C24.9427 17.4793 25.756 18.3621 26.2661 19.4197C26.8183 20.5715 27.0938 21.8359 27.0708 23.1124C27.0935 24.404 26.806 25.6823 26.2323 26.8404C25.7088 27.8988 24.8717 28.771 23.8344 29.3386C22.805 29.9019 21.6482 30.1926 20.4741 30.1831C19.2474 30.2021 18.0401 29.8766 16.9899 29.2438C15.9816 28.6348 15.1733 27.7454 14.6644 26.6847C14.1411 25.6166 13.8712 24.4426 13.8759 23.2537V23.2585ZM15.7636 23.2906C15.7636 24.9475 16.2099 26.2512 17.1026 27.2016C17.5279 27.6658 18.0482 28.0335 18.6281 28.28C19.2081 28.5265 19.8343 28.646 20.4645 28.6305C21.8388 28.6305 22.9654 28.1489 23.8553 27.1856C24.7453 26.2223 25.1846 24.8608 25.1846 23.0915C25.2086 22.0882 25.0171 21.0913 24.623 20.1679C24.2745 19.3708 23.695 18.6959 22.9589 18.23C22.2226 17.7696 21.3689 17.5305 20.4999 17.5413C19.8841 17.532 19.2726 17.6444 18.7006 17.872C18.1285 18.0996 17.6073 18.4379 17.167 18.8674C16.2357 19.7505 15.7701 21.2248 15.7701 23.2906H15.7636ZM29.4011 29.9567V16.1959H31.276L38.518 26.9977V16.1959H40.2721V29.9567H38.3908L31.1488 19.1548V29.9567H29.4011ZM43.4296 29.9567V16.1959H52.7348V17.8094H45.2594V22.0961H51.7338V23.7096H45.2594V29.9567H43.4296ZM55.4095 29.9567V16.1959H57.2409V29.9567H55.4095Z" fill="#1E212E"/>
<path fill-rule="evenodd" clip-rule="evenodd" d="M115.257 29.8413V16.0804H121.372C122.604 16.0804 123.538 16.2041 124.176 16.4513C124.82 16.7017 125.36 17.1623 125.708 17.7582C126.089 18.3823 126.287 19.1003 126.279 19.8309C126.302 20.7474 125.961 21.6358 125.33 22.3018C124.696 22.9713 123.72 23.3935 122.397 23.5766C122.795 23.7524 123.165 23.9831 123.498 24.2621C124.079 24.8052 124.586 25.421 125.008 26.094L127.393 29.8413H125.112L123.289 26.9722C122.758 26.1422 122.323 25.5112 121.974 25.0713C121.715 24.7188 121.402 24.4089 121.047 24.153C120.792 23.9889 120.512 23.8674 120.218 23.7933C119.883 23.7417 119.544 23.7202 119.205 23.7291H117.088V29.8413H115.257ZM117.088 22.1557H121.005C121.841 22.1557 122.489 22.069 122.957 21.8956C123.397 21.7495 123.773 21.4577 124.023 21.0688C124.264 20.7028 124.392 20.2738 124.39 19.8357C124.398 19.5327 124.339 19.2317 124.216 18.9542C124.094 18.6766 123.912 18.4294 123.683 18.2302C123.212 17.8096 122.467 17.5998 121.448 17.6009H117.088V22.1557ZM138.17 16.082H140V24.0293C140 25.4133 139.844 26.512 139.532 27.3254C139.202 28.1552 138.605 28.8525 137.836 29.3082C137.017 29.8172 135.948 30.0741 134.617 30.0741C133.33 30.0741 132.272 29.8525 131.453 29.4078C130.658 28.9922 130.037 28.3098 129.697 27.4812C129.349 26.6388 129.173 25.4887 129.171 24.0309V16.0837H131.001V24.0277C131.001 25.2222 131.114 26.1149 131.336 26.6704C131.547 27.2293 131.953 27.694 132.478 27.9805C133.087 28.3049 133.77 28.4638 134.459 28.4413C135.795 28.4413 136.748 28.1384 137.318 27.5326C137.887 26.9267 138.171 25.7585 138.169 24.0277L138.17 16.082Z" fill="#1E212E"/>
<path fill-rule="evenodd" clip-rule="evenodd" d="M110.747 16.1493C111.23 15.6179 112.01 15.8282 112.01 16.9023V23.9665C112.01 27.5372 110.798 29.7159 106.893 29.7159C106.137 29.7257 105.384 29.6246 104.657 29.4157C105.281 29.5604 105.92 29.6305 106.561 29.6244C110.467 29.6244 111.679 27.4473 111.679 23.8766V17.1335C111.679 16.2585 111.251 15.9567 110.747 16.1493Z" fill="#EF4123"/>
</svg>
